<svg viewBox="0 0 300 300" xmlns="http://www.w3.org/2000/svg">
  <path d="M150 0C67.2 0 0 67.2 0 150s67.2 150 150 150 150-67.2 150-150S232.8 0 150 0zm83.9 208.7c-1.5 3.8-4.3 6.9-7.9 8.7l-69.6 35.4c-2.4 1.2-5 1.9-7.7 1.9-2.7 0-5.3-.6-7.7-1.9l-69.6-35.4c-3.6-1.8-6.4-4.9-7.9-8.7L38.1 130c-1.5-3.8-1.5-8 0-11.8l25.4-78.7c1.5-3.8 4.3-6.9 7.9-8.7l69.6-35.4c2.4-1.2 5-1.9 7.7-1.9 2.7 0 5.3.6 7.7 1.9l69.6 35.4c3.6 1.8 6.4 4.9 7.9 8.7l25.4 78.7c1.5 3.8 1.5 8 0 11.8l-25.4 78.7z" fill="#2D374B"/>
  <path d="M192.8 184.4l-35.1-54.9-17.6 18.8-17.6-18.8-35.1 54.9h105.4zm-42.7-92.4l-17.6 37.5 17.6 18.8 17.6-18.8-17.6-37.5z" fill="#28A0F0"/>
</svg> 