<svg viewBox="0 0 1503 1504" xmlns="http://www.w3.org/2000/svg">
  <path d="M1502.3 752c0 414.8-336.2 751-751 751-414.8 0-751-336.2-751-751C.3 337.2 336.5 1 751.3 1c414.8 0 751 336.2 751 751" fill="#E84142"/>
  <path d="M979.6 1016.1c-21.9 0-39.8-9.2-54.8-27.7L751.3 743.5 578 988.4c-15 18.5-32.9 27.7-54.8 27.7-35.8 0-64.8-29-64.8-64.8 0-13.9 4.6-27.7 13.9-39.8l223.2-318.1c15-21.9 37.9-34.8 62.7-34.8 24.8 0 47.7 12.9 62.7 34.8l223.2 318.1c9.2 12.1 13.9 25.9 13.9 39.8.2 35.8-28.9 64.8-64.6 64.8h-13.8zM1153.7 1016.1c-35.8 0-64.8-29-64.8-64.8 0-13.9 4.6-27.7 13.9-39.8l111.6-159.1-111.6-159.1c-9.2-12.1-13.9-25.9-13.9-39.8 0-35.8 29-64.8 64.8-64.8 21.9 0 39.8 9.2 54.8 27.7l173.3 244.9c9.2 12.1 13.9 25.9 13.9 39.8s-4.6 27.7-13.9 39.8l-173.3 244.9c-15 18.5-32.9 27.7-54.8 27.7z" fill="#FFF"/>
</svg> 