<svg viewBox="0 0 500 500" xmlns="http://www.w3.org/2000/svg">
  <circle cx="250" cy="250" r="250" fill="#FF0420"/>
  <path d="M177.6 316.2c-26.9 0-43.9-13.3-43.9-34.5 0-2.4.2-4.9.6-7.2l9.2-59.4c4.2-26.7 25.4-44.5 54.3-44.5 19.5 0 34.9 6 45.3 17.8 10.2 11.6 14.2 27.7 11.8 47.4l-.6 3.8h-39.7l.8-5.1c1.2-8.5.4-15.2-2.3-19.7-2.8-4.7-7.9-7-15.1-7-10.8 0-17.8 5.9-19.7 16.8l-9.4 60.6c-.2 1.2-.3 2.4-.3 3.6 0 7.4 5.1 11.2 15.1 11.2 10.2 0 17-5.9 19.1-16.6l3.6-22.4h-17.8l5.3-32.2h57.7l-11.4 71.5c-6.7 42.2-34.7 65.9-76.3 65.9h-.3z" fill="#FFF"/>
  <path d="M306.9 172.6l-20.8 131.7h-40.1l20.8-131.7h40.1zm8.7-55.1l-5.3 33.9h-40.1l5.3-33.9h40.1z" fill="#FFF"/>
</svg> 