<svg viewBox="0 0 38 33" xmlns="http://www.w3.org/2000/svg">
  <path d="M29.1 8.2c-.8-.4-1.8-.4-2.6 0l-5.5 3.2-3.7 2.1-5.5 3.2c-.8.4-1.8.4-2.6 0l-4.3-2.5c-.8-.4-1.3-1.3-1.3-2.2V7.3c0-.9.5-1.7 1.3-2.2l4.3-2.5c.8-.4 1.8-.4 2.6 0l4.3 2.5c.8.4 1.3 1.3 1.3 2.2v3.2l3.7-2.1V4.2c0-.9-.5-1.7-1.3-2.2l-8-4.6c-.8-.4-1.8-.4-2.6 0l-8.1 4.7C.5 2.5 0 3.3 0 4.2v9.4c0 .9.5 1.7 1.3 2.2l8.1 4.7c.8.4 1.8.4 2.6 0l5.5-3.2 3.7-2.1 5.5-3.2c.8-.4 1.8-.4 2.6 0l4.3 2.5c.8.4 1.3 1.3 1.3 2.2v4.7c0 .9-.5 1.7-1.3 2.2l-4.3 2.5c-.8.4-1.8.4-2.6 0l-4.3-2.5c-.8-.4-1.3-1.3-1.3-2.2v-3.2l-3.7 2.1v3.2c0 .9.5 1.7 1.3 2.2l8.1 4.7c.8.4 1.8.4 2.6 0l8.1-4.7c.8-.4 1.3-1.3 1.3-2.2v-9.4c0-.9-.5-1.7-1.3-2.2l-8-4.7z" fill="#8247E5"/>
</svg> 