<?xml version="1.0" encoding="UTF-8"?>
<svg version="1.1" xmlns="http://www.w3.org/2000/svg" width="300" height="300">
<path d="M0 0 C0.88151733 0.00337372 1.76303467 0.00674744 2.67126465 0.01022339 C15.57614325 0.08178707 27.84550329 0.5804289 40.25 4.4375 C41.04067871 4.66824219 41.83135742 4.89898438 42.64599609 5.13671875 C60.97430243 10.56945727 78.56879599 19.11178653 93.25 31.4375 C94.41004562 32.38425015 95.5702082 33.33085701 96.73046875 34.27734375 C125.57022219 58.10451949 145.66328766 93.06990047 150.25 130.4375 C150.76301108 137.01160384 150.73649071 143.59774531 150.6875 150.1875 C150.68412628 151.06901733 150.68075256 151.95053467 150.67727661 152.85876465 C150.60571293 165.76364325 150.1070711 178.03300329 146.25 190.4375 C146.01925781 191.22817871 145.78851563 192.01885742 145.55078125 192.83349609 C134.63593361 229.65666926 109.70533841 262.26478824 76.25 281.4375 C64.73522162 287.61327766 52.87506994 293.00023976 40.25 296.4375 C39.61094727 296.63069824 38.97189453 296.82389648 38.31347656 297.02294922 C14.88490608 303.94528372 -16.43392607 303.57407609 -39.75 296.4375 C-40.49717285 296.22319336 -41.2443457 296.00888672 -42.01416016 295.78808594 C-50.60768073 293.30072608 -58.82238939 290.13589967 -66.9375 286.375 C-67.62030029 286.05885742 -68.30310059 285.74271484 -69.0065918 285.41699219 C-72.41248699 283.77407428 -75.49274235 281.98397651 -78.55078125 279.75390625 C-81.55237947 277.3365773 -81.55237947 277.3365773 -84.75 276.4375 C-84.75 275.7775 -84.75 275.1175 -84.75 274.4375 C-85.3275 274.14875 -85.905 273.86 -86.5 273.5625 C-88.58333333 272.52083333 -90.66666667 271.47916667 -92.75 270.4375 C-92.75 269.7775 -92.75 269.1175 -92.75 268.4375 C-93.471875 268.210625 -94.19375 267.98375 -94.9375 267.75 C-97.62874849 266.49408404 -99.2279241 265.20065845 -101.23828125 263.05078125 C-103.16445227 260.99520339 -105.17886551 259.03748902 -107.1875 257.0625 C-110.44441987 253.8109993 -113.53038804 250.49281974 -116.4609375 246.9453125 C-117.74842291 245.39258694 -117.74842291 245.39258694 -119.30859375 243.921875 C-121.10173447 242.07528022 -122.20662914 239.98365896 -123.4375 237.73828125 C-125.82758301 233.54852263 -128.46230787 229.50025696 -131.04296875 225.42578125 C-132.47156834 222.9249147 -133.11632428 221.17062658 -133.75 218.4375 C-134.41 218.1075 -135.07 217.7775 -135.75 217.4375 C-137.27326548 214.61905834 -138.37935109 211.59959279 -139.5625 208.625 C-139.91707275 207.73659424 -140.27164551 206.84818848 -140.63696289 205.93286133 C-146.12184757 191.75245817 -149.83919791 176.95045658 -149.98828125 161.70703125 C-150.00304001 160.47079262 -150.00304001 160.47079262 -150.01809692 159.20957947 C-150.3408064 125.20171914 -150.3408064 125.20171914 -145.75 110.4375 C-145.51925781 109.64682129 -145.28851563 108.85614258 -145.05078125 108.04150391 C-133.2460907 68.21628798 -106.07002927 35.99239079 -69.75 16.25 C-62.58399663 12.49405136 -55.22121924 9.5919114 -47.5625 7 C-46.62599609 6.68200439 -45.68949219 6.36400879 -44.72460938 6.03637695 C-29.79812546 1.25016744 -15.55948447 -0.11567504 0 0 Z " fill="#000000" transform="translate(149.75,-0.4375)"/>
<path d="M0 0 C1.78154984 -0.00422974 1.78154984 -0.00422974 3.59909058 -0.00854492 C4.90878311 -0.00652069 6.21847565 -0.00449646 7.56785583 -0.00241089 C8.95567369 -0.00376532 10.34349118 -0.0055455 11.73130798 -0.00772095 C15.50593863 -0.01228982 19.28054202 -0.01050807 23.05517316 -0.00734186 C26.998524 -0.00481596 30.94187246 -0.0071564 34.88522339 -0.00872803 C41.5071403 -0.01054883 48.12904608 -0.00814552 54.7509613 -0.00338745 C62.41722269 0.00205724 70.0834575 0.00029065 77.74971825 -0.00521386 C84.32212126 -0.00974484 90.89451625 -0.01039568 97.46692032 -0.00777519 C101.39664804 -0.00621262 105.32636324 -0.00601814 109.25609016 -0.00931168 C112.94880296 -0.01219026 116.64148131 -0.01021496 120.33419037 -0.00441742 C122.34381563 -0.00245422 124.3534438 -0.00544369 126.36306763 -0.00854492 C128.14038773 -0.00431519 128.14038773 -0.00431519 129.95361328 0 C131.50800786 0.00056554 131.50800786 0.00056554 133.09380436 0.0011425 C135.41331482 0.12698364 135.41331482 0.12698364 136.41331482 1.12698364 C136.78807147 4.18150704 136.81406331 5.60549016 134.90940857 8.08401489 C134.23007263 8.69631958 133.55073669 9.30862427 132.85081482 9.93948364 C130.14801937 12.47718687 127.57207316 14.99534425 125.16331482 17.81448364 C121.94552627 21.55127034 118.63172632 25.19041709 115.28831482 28.81448364 C114.53372986 29.63468994 114.53372986 29.63468994 113.76390076 30.47146606 C113.27437927 31.00102905 112.78485779 31.53059204 112.28050232 32.07620239 C111.84850525 32.54372925 111.41650818 33.0112561 110.97142029 33.49295044 C110.45724548 34.0321814 109.94307068 34.57141235 109.41331482 35.12698364 C108.83451569 35.97365097 108.25571655 36.8203183 107.65937805 37.69264221 C104.04448437 41.25065951 99.66254698 40.72663297 94.85427856 40.76019287 C92.9059185 40.73558487 92.9059185 40.73558487 90.91819763 40.71047974 C89.52993576 40.71070654 88.14167277 40.71312251 86.75341797 40.71755981 C82.99106196 40.72325942 79.22948271 40.69800015 75.46727467 40.6668849 C71.53197768 40.63932457 67.5966791 40.63934433 63.66130066 40.63616943 C57.05718045 40.62697143 50.45335035 40.59945246 43.84934998 40.55911255 C34.5242664 40.50220462 25.19932832 40.47995202 15.8740983 40.46382785 C9.42333222 40.45138875 2.97258839 40.43070451 -3.47815037 40.40844774 C-5.04474849 40.40308072 -6.61134742 40.39794463 -8.17794704 40.39303541 C-12.63949397 40.37876392 -17.10095699 40.35938201 -21.56244087 40.33155823 C-23.56486571 40.32010794 -25.56731624 40.31347242 -27.56976318 40.3069458 C-28.75030777 40.29834534 -29.93085236 40.28974487 -31.14717102 40.28088379 C-32.17953762 40.27531149 -33.21190422 40.26973919 -34.27555466 40.26399803 C-36.58668518 40.12698364 -36.58668518 40.12698364 -37.58668518 39.12698364 C-37.9277528 36.15446498 -37.93070132 34.63406875 -36.22901917 32.12576294 C-35.60325989 31.49065796 -34.97750061 30.85555298 -34.33277893 30.20120239 C-33.64248596 29.48641724 -32.95219299 28.77163208 -32.24098206 28.03518677 C-31.50943909 27.30235474 -30.77789612 26.56952271 -30.02418518 25.81448364 C-28.60485215 24.36138789 -27.18687473 22.90696674 -25.77027893 21.45120239 C-25.07039856 20.73569214 -24.37051819 20.02018188 -23.64942932 19.2829895 C-20.50867189 16.00023073 -17.53937975 12.57859005 -14.58668518 9.12698364 C-13.31585185 7.64781698 -12.04501851 6.16865031 -10.77418518 4.68948364 C-9.92920471 3.70141724 -9.92920471 3.70141724 -9.06715393 2.69338989 C-6.26083815 -0.27582548 -3.93625596 0.00143161 0 0 Z " fill="#2AA1AD" transform="translate(100.58668518066406,70.87301635742188)"/>
<path d="M0 0 C1.38826188 -0.00022681 2.77652486 -0.00264277 4.16477966 -0.00708008 C7.92713567 -0.01277969 11.68871492 0.01247959 15.45092297 0.04359484 C19.38621995 0.07115516 23.32151853 0.07113541 27.25689697 0.0743103 C33.86101718 0.0835083 40.46484728 0.11102727 47.06884766 0.15136719 C56.39393124 0.20827512 65.71886931 0.23052771 75.04409933 0.24665189 C81.49486541 0.25909099 87.94560924 0.27977523 94.396348 0.30203199 C95.96294612 0.30739902 97.52954505 0.3125351 99.09614468 0.31744432 C103.5576916 0.33171582 108.01915462 0.35109773 112.4806385 0.37892151 C114.48306334 0.3903718 116.48551387 0.39700731 118.48796082 0.40353394 C120.25877769 0.41643463 120.25877769 0.41643463 122.06536865 0.42959595 C123.61391855 0.4379544 123.61391855 0.4379544 125.19375229 0.4464817 C127.50488281 0.58349609 127.50488281 0.58349609 128.50488281 1.58349609 C128.87963946 4.63801949 128.9056313 6.06200261 127.00097656 8.54052734 C126.32164062 9.15283203 125.64230469 9.76513672 124.94238281 10.39599609 C122.21827376 12.95342015 119.62355141 15.49516577 117.19238281 18.33349609 C113.69286235 22.40551876 110.06608994 26.35081382 106.41186523 30.28369141 C104.27968381 32.59128362 102.24322132 34.91555148 100.29785156 37.38427734 C98.50488281 39.58349609 98.50488281 39.58349609 96.50488281 40.58349609 C94.64463502 40.67922699 92.78090689 40.70980227 90.91819763 40.71047974 C89.1366478 40.71470947 89.1366478 40.71470947 87.31910706 40.71902466 C86.00941452 40.71700043 84.69972198 40.7149762 83.3503418 40.71289062 C81.96252395 40.71424506 80.57470645 40.71602523 79.18688965 40.71820068 C75.412259 40.72276955 71.63765561 40.7209878 67.86302447 40.7178216 C63.91967363 40.71529569 59.97632517 40.71763613 56.03297424 40.71920776 C49.41105733 40.72102857 42.78915155 40.71862525 36.16723633 40.71386719 C28.50097494 40.70842249 20.83474013 40.71018908 13.16847938 40.71569359 C6.59607637 40.72022458 0.02368138 40.72087541 -6.54872268 40.71825492 C-10.4784504 40.71669236 -14.40816561 40.71649787 -18.33789253 40.71979141 C-22.03060533 40.72266999 -25.72328368 40.72069469 -29.41599274 40.71489716 C-31.425618 40.71293395 -33.43524616 40.71592342 -35.44487 40.71902466 C-37.22219009 40.71479492 -37.22219009 40.71479492 -39.03541565 40.71047974 C-40.58981023 40.7099142 -40.58981023 40.7099142 -42.17560673 40.70933723 C-44.49511719 40.58349609 -44.49511719 40.58349609 -45.49511719 39.58349609 C-45.99511719 37.45849609 -45.99511719 37.45849609 -45.49511719 34.58349609 C-43.95117684 32.70053027 -42.25038938 31.10144815 -40.46777344 29.44287109 C-38.63332521 27.71376742 -37.00430127 25.93778344 -35.37011719 24.02099609 C-31.95646767 20.06426597 -28.42505934 16.22535309 -24.87011719 12.39599609 C-24.31952637 11.80165771 -23.76893555 11.20731934 -23.20166016 10.5949707 C-22.66686035 10.02012939 -22.13206055 9.44528809 -21.58105469 8.85302734 C-21.10716309 8.34360596 -20.63327148 7.83418457 -20.14501953 7.30932617 C-19.60055176 6.73980225 -19.05608398 6.17027832 -18.49511719 5.58349609 C-17.91442474 4.73493546 -17.3337323 3.88637482 -16.73544312 3.01210022 C-12.3746996 -1.27990501 -5.67632392 -0.0716926 0 0 Z " fill="#6370D5" transform="translate(108.4951171875,188.41650390625)"/>
<path d="M0 0 C1.18054459 -0.00860046 2.36108917 -0.01720093 3.57740784 -0.02606201 C4.88441147 -0.03032196 6.1914151 -0.03458191 7.5380249 -0.03897095 C8.91920683 -0.04686884 10.30038668 -0.05513759 11.68156433 -0.06375122 C16.22972634 -0.09001174 20.77789774 -0.10528471 25.32611084 -0.11953735 C26.8901851 -0.12489573 28.4542593 -0.13027324 30.01833344 -0.13566971 C36.52418341 -0.15730602 43.03003087 -0.17604284 49.53590775 -0.1872921 C58.86684471 -0.20353056 68.19736516 -0.23669676 77.52814507 -0.29369295 C84.08445249 -0.33237842 90.64064845 -0.35192322 97.19706702 -0.35721266 C101.11482564 -0.36086864 105.03214044 -0.37291469 108.9497757 -0.4053154 C112.63693507 -0.43537143 116.32338157 -0.44171728 120.01063728 -0.42993164 C122.00764252 -0.42960538 124.00460358 -0.4540887 126.00144958 -0.47930908 C135.75901953 -0.41120492 135.75901953 -0.41120492 138.77941895 2.5680542 C139.66104706 3.84804794 139.66104706 3.84804794 140.56048584 5.15390015 C141.21790771 5.79972046 141.87532959 6.44554077 142.55267334 7.1109314 C146.39373622 10.89621121 150.04031129 14.77357544 153.55657959 18.8609314 C156.13710653 21.81369809 158.78296999 24.7033426 161.43548584 27.59140015 C162.16892212 28.39045776 162.16892212 28.39045776 162.91717529 29.20565796 C165.20445568 31.71246492 165.20445568 31.71246492 167.56048584 34.15390015 C167.68548584 36.65390015 167.68548584 36.65390015 167.56048584 39.15390015 C165.82779541 40.88659058 163.48171146 40.29129889 161.12097168 40.30107117 C159.94042709 40.30822647 158.75988251 40.31538177 157.54356384 40.32275391 C156.23656021 40.32544281 154.92955658 40.32813171 153.58294678 40.3309021 C152.20176521 40.33716403 150.82058535 40.34381059 149.43940735 40.35081482 C145.67686003 40.36825201 141.91432545 40.37878437 138.1517477 40.38702035 C135.80204229 40.39216567 133.45234085 40.39824167 131.10263824 40.40453148 C123.75407382 40.42359275 116.40551948 40.43782082 109.05693507 40.44614345 C100.56878132 40.45591467 92.08088843 40.48222705 83.5928266 40.52264434 C77.03651702 40.55279363 70.48028223 40.56761126 63.92390466 40.57092446 C60.00621756 40.57327672 56.08880883 40.58225913 52.17119598 40.60738564 C48.48410626 40.63065032 44.79747847 40.63490638 41.1103344 40.62462425 C39.11335679 40.62389203 37.11640273 40.6429956 35.11952209 40.66268921 C33.92769821 40.65574539 32.73587433 40.64880157 31.50793457 40.64164734 C29.95712252 40.64522987 29.95712252 40.64522987 28.37498093 40.64888477 C23.50883293 39.7930764 20.56240433 36.38553055 17.49798584 32.71640015 C14.29238562 28.96486801 10.97892704 25.33262148 7.62298584 21.71640015 C6.58773566 20.59278877 5.55257832 19.46909184 4.51751709 18.3453064 C2.69973205 16.37501277 0.86543867 14.42905004 -0.99029541 12.4937439 C-1.7160376 11.72159546 -2.44177979 10.94944702 -3.18951416 10.15390015 C-3.82373291 9.49390015 -4.45795166 8.83390015 -5.11138916 8.15390015 C-6.77587029 5.64738739 -6.77861866 4.106104 -6.43951416 1.15390015 C-4.70700339 -0.57861062 -2.36082042 0.01274276 0 0 Z " fill="#4789C1" transform="translate(69.43951416015625,129.84609985351563)"/>
</svg>
